# xmcd
#
# Track frame offsets:
#	150
#	11760
#	27027
#	48042
#	62367
#	73382
#	89395
#	103927
#	121897
#	134855
#	147337
#	161120
#
# Disc length: 2293 seconds
#
# Revision: 2
# Processed by: cddbd v1.5.2PL0 Copyright (c) Steve Scherf et al.
# Submitted via: audiograbber 1.83.01
#
DISCID=ac08f30c
DTITLE=Joan Jett and The Blackhearts - Glorius results of a misspent youth
DYEAR=1985
DGENRE=Hard Rock
TTITLE0=Cherry bomb
TTITLE1=Love you love me love
TTITLE2=Frustrated
TTITLE3=Hold me
TTITLE4=Long time
TTITLE5=Talkin' bout my baby
TTITLE6=I need someone
TTITLE7=Love like mine
TTITLE8=New Orleans
TTITLE9=Someday
TTITLE10=Push and stomp
TTITLE11=I got no answer
EXTD=YEAR: 1985
EXTT0=
EXTT1=
EXTT2=
EXTT3=
EXTT4=
EXTT5=
EXTT6=
EXTT7=
EXTT8=
EXTT9=
EXTT10=
EXTT11=
PLAYORDER=
